<?xml version="1.0" encoding="utf-8"?>

<!DOCTYPE svg PUBLIC "-//W3C//DTD SVG 1.1//EN" "http://www.w3.org/Graphics/SVG/1.1/DTD/svg11.dtd">
<svg version="1.1" id="Layer_1" xmlns="http://www.w3.org/2000/svg" xmlns:xlink="http://www.w3.org/1999/xlink" x="0px" y="0px"
	 viewBox="0 0 2149.646 1654.873" enable-background="new 0 0 2149.646 1654.873" xml:space="preserve">
<path d="M2110.689,996.444c-24.591-31.901-53.169,44.529-59.483,56.159c-19.606,36.221-54.498,64.799-95.039,70.448
	c-76.097,10.686-74.189-22.649-251.554-130.263c-20.603-12.295-65.796-30.24-77.094-50.842c-3.987-7.643-0.332-18.277-1.661-29.243
	c-2.326-18.609-11.963-39.212-21.268-56.492c-14.621-27.249-18.941-23.594-56.492-23.594c-54.165-0.231-308.75,35.371-425.947,9.951
	c74.478-206.858,107.891-172.094,97.006-280.644c30.849-4.097,58.725-6.781,91.676-6.781c4.838,0,28.198-88.737,33.523-111.56
	c186.937-40.202,161.335-34.068,343.974-146.972c18.609-11.631,39.212-11.631,58.485-21.267
	c27.249-13.625,40.874-36.553,72.442-43.532c12.295-2.658,22.597-2.658,24.923-17.944c2.991-18.277-11.963-23.261-22.264-33.895
	c-15.286-16.283,3.655-26.584,19.938-19.274c3.988,1.662,6.314,7.975,9.637,10.634c72.871,66.962,25.724-57.028-26.584-34.227
	c-164.547,71.057-15.031,50.682-240.588,128.602c-43.631,14.874-93.757,11.434-127.272,39.544
	c-33.64,28.257-80.144,37.958-102.017,35.224l-0.25,1.75c-15.972-2.817-31.986-5.593-47.968-8.4
	c4.964-5.491,8.421-14.765,11.997-23.257c22.596,12.295,8.64,0,30.904-3.988c8.308-1.994,5.317,5.649,13.957,4.652
	c34.428-3.972,41.778-54.949,49.513-74.104c8.308-20.271,11.298-38.215-1.661-55.827c-21.6-29.575-43.199-55.827-74.104-74.768
	c-28.246-17.28-35.224-54.83-63.802-70.116c-31.237-16.615-55.827,9.637-87.064,7.643c-16.947-1.329-29.575-16.283-47.519-16.615
	c-15.951-0.332-30.24,7.975-38.215,21.6c-7.975,12.96-5.317,28.578-21.268,33.895c-12.295,3.988-30.572-7.975-42.203-1.662
	c-28.578,14.954,19.274,50.178-9.969,65.464c-6.978,3.655-15.286-2.658-19.274,11.963c-2.326,8.64,2.658,21.932,3.988,30.24
	c8.002,48.898-20.462,44.028,2.991,89.057c3.988,7.311,22.929,25.255,19.938,32.898c-0.665,1.994-17.612-12.295-19.274-2.659
	c-0.515,2.747,4.204,5.754,9.206,8.163c-0.091,0.026-0.184,0.048-0.275,0.075c-64.195-26.594-50.612-6.351-81.04-3.585
	c-30.933,2.133-68.207-21.29-98.03-7.311c-9.969,4.652-16.947,14.621-27.581,14.954c-12.628,0.332-27.581-13.957-38.88-18.609
	c-7.188-3.052-104.007-39.644-139.9-39.212c-53.518,1.338-49.908-9.045-59.15-17.944c-26.584-25.92-62.141-7.311-79.753,16.948
	c-6.646,9.304-8.972,17.612-16.283,25.92c-9.637,10.966-15.618,7.643-24.258,12.295c-25.602,14.289-21.26,70.197,30.904,57.156
	c15.286-3.655,7.975-4.32,22.929,0.997c18.333,7.174,51.288,6.962,69.784,4.32c11.963-1.661,13.624-6.978,21.932-10.302
	c27.914-11.298,68.122-1.994,92.713,10.966c80.181,42.677,79.25,64.784,114.645,60.479c-1.994,11.631-6.314,22.597-8.972,34.227
	c-3.63,16.335,4.846,87.372,3.655,149.869c-0.621,46.602-12.857,29.444-55.495,92.713c-4.32,6.314-13.957,14.621-15.286,22.264
	c-0.527,3.426,13.97,74.601-3.323,108.663c-13.082,25.371-71.168,39.497-38.215,93.045c3.987,6.646,9.304,18.609,13.624,4.32
	c17.617,36.337,24.887,61.674,42.814,46.892c2.788,3.822,5.583,7.654,8.386,11.493c-44-10.77-68.506,45.674-64.16,82.179
	c4.337,36,43.826,121.239,0.997,207.69c-4.985,10.301-63.138,124.281-51.839,127.272c-4.652-1.329-15.618-18.277-20.935-21.6
	c-12.628-7.975-33.23-11.298-47.187-15.618c-143.723-45.304-22.143,2.844-161.167-59.815c-12.295-5.649-27.913-7.311-39.212-14.289
	c-21.267-12.96-23.261-36.553-35.889-56.159c-28.597-43.357-94.57-82.66-106.67-80.75c-19.274,2.991,0.997,1.994-4.652,15.286
	c-32.364,75.025-164.609,27.304-190.742,64.799c-9.304,13.292,6.646,39.212,17.28,43.864c17.28,7.975,46.19-0.332,65.464,3.656
	c28.91,5.981,59.15,20.603,86.731,29.575c65.068,21.295,102.517,57.818,209.019,153.192c35.557,31.569,71.445,32.898,112.983,53.501
	c67.125,33.23,87.396,141.562,181.106,97.033c39.544-18.941,59.482-64.799,89.722-95.371
	c46.003-46.871,104.551-160.266,133.918-218.656c73.188-85.385,94.063-84.935,106.52-163.278
	c78.652-31.525,65.922-29.458,185.243-29.458c57.156,0,103.346-1.661,157.18-21.267c56.159-20.935,103.014,23.594,157.512,10.966
	c23.261-5.317,14.621-22.597,33.563-33.563c18.277-10.302,40.541,18.609,56.824,31.901c70.885,58.835,137.604,36.818,233.61,122.952
	c70.173,63.936,71.556,42.914,96.7,64.467c4.32,3.655,8.64,17.28,13.292,18.941c9.305,3.655,70.448-145.217,75.433-153.857
	c19.938-32.234,39.544-37.218,49.845-75.101C2104.375,1061.575,2120.99,1009.736,2110.689,996.444z"/>
</svg>
